Coordinates
version=1
nRows=21
nColumns=22
inDegrees=yes

Units are S.I. units (second, meters, Newtons, ...)
If the header above contains a line with 'inDegrees', this indicates whether rotational values are in degrees (yes) or radians (no).

endheader
time	pelvis_tilt	pelvis_list	pelvis_rotation	pelvis_tx	pelvis_ty	pelvis_tz	hip_flexion_r	hip_adduction_r	hip_rotation_r	knee_angle_r	ankle_angle_r	subtalar_angle_r	hip_flexion_l	hip_adduction_l	hip_rotation_l	knee_angle_l	ankle_angle_l	subtalar_angle_l	lumbar_extension	lumbar_bending	lumbar_rotation
      0.01000000	      5.32705724	     -3.41699099	      5.43651331	     -1.35527459	      0.95480026	     -0.61621227	     -5.83771676	      3.97592827	     -9.28977025	     -8.05419192	      9.60034069	     -0.54097401	     -1.17226962	     -5.55323896	    -13.72769004	    -17.23769578	     20.48763861	     -8.48125177	    -12.84828534	      4.41309266	     -9.85391933
      0.02000000	      5.32688936	     -3.41779960	      5.43600965	     -1.35527712	      0.95480320	     -0.61622226	     -5.83884100	      3.97622866	     -9.28971119	     -8.05402801	      9.60033151	     -0.54115032	     -1.17184612	     -5.55284878	    -13.72759728	    -17.23730247	     20.48763332	     -8.48140968	    -12.84895821	      4.41286228	     -9.85429306
      0.03000000	      5.32735609	     -3.41927883	      5.43070272	     -1.35529743	      0.95480686	     -0.61621674	     -5.84055433	      3.97783579	     -9.28948740	     -8.04928353	      9.60059834	     -0.54264052	     -1.17238658	     -5.55329616	    -13.72732433	    -17.23595713	     20.48783019	     -8.48266937	    -12.85549940	      4.41142105	     -9.85845476
      0.04000000	      5.32753316	     -3.42021593	      5.43039488	     -1.35530804	      0.95480870	     -0.61623097	     -5.84109754	      3.97775360	     -9.28938935	     -8.04926426	      9.60062347	     -0.54275976	     -1.17227672	     -5.55299211	    -13.72741462	    -17.23589456	     20.48784611	     -8.48277355	    -12.85571028	      4.41109836	     -9.85874023
      0.05000000	      5.36735722	     -3.42003973	      5.42292830	     -1.35531250	      0.95487056	     -0.61622644	     -5.90087980	      3.98409087	     -9.26080842	     -8.01570252	      9.60535950	     -0.58077727	     -1.21907583	     -5.55714997	    -13.74835657	    -17.23438076	     20.49405732	     -8.52213294	    -12.90539490	      4.41128660	     -9.86524173
      0.06000000	      5.36809275	     -3.42115692	      5.42241363	     -1.35533335	      0.95486918	     -0.61624295	     -5.90037080	      3.98393441	     -9.26078719	     -8.01558004	      9.60527684	     -0.58083526	     -1.21897297	     -5.55683079	    -13.74826180	    -17.23428767	     20.49406053	     -8.52219917	    -12.90551756	      4.41081095	     -9.86545545
      0.07000000	      5.36869922	     -3.42329116	      5.41527245	     -1.35536947	      0.95486807	     -0.61623942	     -5.89699241	      3.98482888	     -9.26030044	     -8.01583478	      9.60438074	     -0.58119442	     -1.21854273	     -5.55757950	    -13.74612579	    -17.23475006	     20.49393204	     -8.52327712	    -12.90961901	      4.40851230	     -9.86830755
      0.08000000	      5.37035363	     -3.42456236	      5.41492230	     -1.35539689	      0.95486349	     -0.61625851	     -5.89638627	      3.98453634	     -9.26007954	     -8.01586597	      9.60426686	     -0.58121609	     -1.21829227	     -5.55737929	    -13.74596526	    -17.23476394	     20.49390010	     -8.52343201	    -12.90926675	      4.40795783	     -9.86853790
      0.09000000	      5.37338381	     -3.42742187	      5.40854049	     -1.35542667	      0.95486123	     -0.61624912	     -5.89366816	      3.98682303	     -9.25673240	     -8.02095703	      9.60220498	     -0.58128656	     -1.21923643	     -5.56016885	    -13.74155937	    -17.23774150	     20.49320413	     -8.52597223	    -12.91039644	      4.40330838	     -9.87288876
      0.10000000	      5.37559485	     -3.42887643	      5.40844167	     -1.35545958	      0.95485725	     -0.61627009	     -5.89318315	      3.98654048	     -9.25637730	     -8.02120295	      9.60202907	     -0.58128525	     -1.21849365	     -5.55976590	    -13.74140634	    -17.23751611	     20.49316267	     -8.52617925	    -12.90991308	      4.40277757	     -9.87311870
      0.11000000	      5.38114910	     -3.43192862	      5.40773312	     -1.35552227	      0.95486063	     -0.61627617	     -5.88302067	      3.98843209	     -9.23784347	     -8.04517156	      9.59012238	     -0.58087526	     -1.21655972	     -5.56168480	    -13.72768109	    -17.24308172	     20.49087931	     -8.53827565	    -12.91876091	      4.40180227	     -9.88614832
      0.12000000	      5.38343388	     -3.43347741	      5.40750622	     -1.35555449	      0.95486058	     -0.61629717	     -5.88263883	      3.98826978	     -9.23778848	     -8.04504552	      9.59001282	     -0.58086478	     -1.21584456	     -5.56130384	    -13.72762737	    -17.24281259	     20.49087560	     -8.53842714	    -12.91791224	      4.40090297	     -9.88626034
      0.13000000	      5.38647596	     -3.43554551	      5.40752673	     -1.35557375	      0.95486279	     -0.61629209	     -5.88248393	      3.99146485	     -9.23619489	     -8.04838676	      9.58797097	     -0.58076253	     -1.21636879	     -5.56374834	    -13.72577794	    -17.24372224	     20.49080080	     -8.54011666	    -12.91453738	      4.39261012	     -9.88830750
      0.14000000	      5.38852628	     -3.43702079	      5.40752954	     -1.35560419	      0.95486745	     -0.61631374	     -5.88197163	      3.99115488	     -9.23603805	     -8.04831284	      9.58782832	     -0.58076186	     -1.21575820	     -5.56337595	    -13.72576448	    -17.24348886	     20.49081234	     -8.54020862	    -12.91393239	      4.39176523	     -9.88848689
      0.15000000	      5.39125082	     -3.43814494	      5.41082773	     -1.35562636	      0.95487277	     -0.61630752	     -5.88086458	      3.99426186	     -9.23267201	     -8.05339184	      9.58476561	     -0.58079766	     -1.21556936	     -5.56584560	    -13.72420240	    -17.24409642	     20.49084543	     -8.54180939	    -12.91238753	      4.38123465	     -9.89190231
      0.16000000	      5.39299958	     -3.43956439	      5.41083609	     -1.35565442	      0.95487820	     -0.61632854	     -5.88042175	      3.99404094	     -9.23250747	     -8.05334194	      9.58461295	     -0.58080725	     -1.21504186	     -5.56529707	    -13.72419570	    -17.24397015	     20.49084946	     -8.54188739	    -12.91188152	      4.38040991	     -9.89213129
      0.17000000	      5.39506759	     -3.43996870	      5.41388591	     -1.35567397	      0.95488380	     -0.61632155	     -5.87982874	      3.99636253	     -9.22933659	     -8.05707861	      9.58155362	     -0.58108045	     -1.21434576	     -5.56714071	    -13.72249779	    -17.24539338	     20.49072504	     -8.54347896	    -12.91049612	      4.36943199	     -9.89610223
      0.18000000	      5.39648077	     -3.44115573	      5.41389441	     -1.35569637	      0.95489206	     -0.61634105	     -5.87964542	      3.99638998	     -9.22918480	     -8.05704401	      9.58136146	     -0.58111591	     -1.21369901	     -5.56635612	    -13.72248600	    -17.24536799	     20.49073083	     -8.54358404	    -12.91004601	      4.36855102	     -9.89638258
      0.19000000	      5.39794643	     -3.44073379	      5.41675002	     -1.35571068	      0.95489716	     -0.61633791	     -5.88044489	      3.99760991	     -9.22727491	     -8.05759110	      9.57884167	     -0.58174747	     -1.21186058	     -5.56694018	    -13.72139506	    -17.24803672	     20.49109532	     -8.54487843	    -12.90813186	      4.35839049	     -9.89932760
      0.20000000	      5.39928418	     -3.44182937	      5.41664907	     -1.35572918	      0.95490466	     -0.61635575	     -5.88054401	      3.99756038	     -9.22723532	     -8.05749510	      9.57873549	     -0.58179522	     -1.21094324	     -5.56609635	    -13.72146727	    -17.24794914	     20.49116201	     -8.54491725	    -12.90773190	      4.35776549	     -9.89943785
      0.21000000	      5.40059178	     -3.44283558	      5.41654979	     -1.35574648	      0.95490954	     -0.61637264	     -5.88069239	      3.99757364	     -9.22720161	     -8.05747414	      9.57865682	     -0.58183752	     -1.21008888	     -5.56541125	    -13.72154540	    -17.24790497	     20.49125097	     -8.54492761	    -12.90730531	      4.35702707	     -9.89946042
